<svg fill="#000000" xmlns="http://www.w3.org/2000/svg"  viewBox="0 0 24 24" width="384px" height="384px"><path fill="none" stroke="#000000" stroke-miterlimit="10" stroke-width="2" d="M21 13c0-2.141-1.353-3.954-3.245-4.666C17.904 7.915 18 7.47 18 7c0-2.209-1.791-4-4-4-.732 0-1.409.211-1.999.554-1.531-.889-3.519-.693-4.83.618C6.045 5.298 5.744 6.926 6.242 8.334 4.351 9.048 3 10.86 3 13c0 1.655.814 3.111 2.052 4.021C5.314 19.258 7.193 21 9.5 21c.925 0 1.785-.281 2.5-.76.715.479 1.575.76 2.5.76 2.307 0 4.186-1.742 4.448-3.979C20.186 16.111 21 14.655 21 13zM12 3L12 21M17.464 5c1.105 1.913.449 4.36-1.464 5.464M6.536 5C5.431 6.913 6.087 9.36 8 10.464M11.994 10c.002 1.654-1.337 2.998-2.991 3M12 13c-.002 1.654 1.337 2.998 2.991 3"/></svg>